<svg width="726" height="50" viewBox="0 0 726 50" fill="none" xmlns="http://www.w3.org/2000/svg">
<path d="M0 48.448V0.767998H2.56L20.224 27.776H19.264L37.12 0.767998H39.68V48.448H36.48V6.08L36.864 6.592L19.904 32.704H19.776L2.688 6.592L3.2 6.08V48.448H0Z" fill="white"/>
<path d="M99.095 48.448V0.767998H128.535V3.648H102.295V23.104H127.255V25.984H102.295V45.568H128.535V48.448H99.095Z" fill="white"/>
<path d="M193.703 48.448V3.648H180.199V0.767998H210.28V3.648H196.904V48.448H193.703Z" fill="white"/>
<path d="M359.311 48.448L341.327 0.767998H344.847L361.551 45.504H360.207L376.847 0.767998H380.367L362.383 48.448H359.311Z" fill="white"/>
<path d="M434.85 48.448V0.767998H464.29V3.648H438.05V23.104H463.01V25.984H438.05V45.568H464.29V48.448H434.85Z" fill="white"/>
<path d="M520.883 48.448V0.767998H536.499C539.485 0.767998 542.109 1.36533 544.37 2.56C546.632 3.75467 548.402 5.44 549.682 7.616C550.963 9.74934 551.603 12.224 551.603 15.04C551.603 18.496 550.643 21.44 548.723 23.872C546.803 26.304 544.221 27.9253 540.979 28.736L552.37 48.448H548.594L536.499 27.264L539.955 29.248H524.083V48.448H520.883ZM524.083 26.368H536.499C538.845 26.368 540.893 25.8987 542.643 24.96C544.435 23.9787 545.843 22.6347 546.867 20.928C547.891 19.1787 548.403 17.1947 548.403 14.976C548.403 12.7147 547.891 10.752 546.867 9.088C545.885 7.38133 544.498 6.05867 542.706 5.12C540.914 4.13867 538.845 3.648 536.499 3.648H524.083V26.368Z" fill="white"/>
<path d="M623.14 49.216C620.11 49.216 617.422 48.6613 615.076 47.552C612.772 46.4 610.852 44.9067 609.316 43.072C607.822 41.2373 606.756 39.3173 606.116 37.312L608.996 36.416C610.233 39.6587 612.046 42.1547 614.436 43.904C616.825 45.6107 619.705 46.464 623.076 46.464C625.337 46.464 627.342 46.08 629.092 45.312C630.841 44.5013 632.228 43.3707 633.252 41.92C634.276 40.4693 634.788 38.72 634.788 36.672C634.788 34.0693 634.02 32.064 632.484 30.656C630.99 29.2053 629.241 28.2027 627.236 27.648L618.34 25.088C614.67 24.0213 612.046 22.3573 610.468 20.096C608.889 17.8347 608.1 15.2747 608.1 12.416C608.1 9.94133 608.697 7.78667 609.892 5.952C611.086 4.07467 612.708 2.624 614.756 1.6C616.804 0.533333 619.108 0 621.668 0C624.313 0 626.681 0.533333 628.772 1.6C630.905 2.624 632.697 3.98933 634.148 5.696C635.641 7.36 636.686 9.17334 637.284 11.136L634.404 12.032C633.294 9.00267 631.609 6.69867 629.348 5.12C627.086 3.54133 624.548 2.752 621.732 2.752C619.769 2.752 617.977 3.15733 616.356 3.968C614.777 4.736 613.518 5.84533 612.58 7.296C611.641 8.74667 611.172 10.4747 611.172 12.48C611.172 14.8267 611.79 16.768 613.028 18.304C614.265 19.84 616.505 21.0987 619.748 22.08L627.812 24.512C630.926 25.4507 633.38 26.9867 635.172 29.12C636.964 31.2107 637.86 33.7493 637.86 36.736C637.86 39.2107 637.22 41.3867 635.94 43.264C634.66 45.0987 632.91 46.5493 630.692 47.616C628.473 48.6827 625.956 49.216 623.14 49.216Z" fill="white"/>
<path d="M695.823 48.448V0.767998H725.263V3.648H699.023V23.104H723.982V25.984H699.023V45.568H725.263V48.448H695.823Z" fill="white"/>
<path d="M274.271 0.767998L256.607 48.448H260.127L275.823 5.448L291.487 48.448H295.007L277.343 0.767998H274.271Z" fill="white"/>
</svg>
