<svg width="49" height="70" viewBox="0 0 49 70" fill="none" xmlns="http://www.w3.org/2000/svg">
<path d="M24.5994 69.5467C17.8573 69.5467 12.138 67.1985 7.4416 62.502C2.74518 57.8056 0.396973 52.0864 0.396973 45.3443V31.5143H48.8018V45.3443C48.8018 52.0864 46.4536 57.8056 41.7572 62.502C37.0607 67.1985 31.3415 69.5467 24.5994 69.5467ZM0.396973 24.5993C0.396973 18.5487 2.35622 13.2617 6.2747 8.73813C10.1932 4.21458 15.1489 1.52062 21.1419 0.65625V24.5993H0.396973ZM28.0569 24.5993V0.65625C34.0498 1.52062 39.0056 4.21458 42.9241 8.73813C46.8425 13.2617 48.8018 18.5487 48.8018 24.5993H28.0569Z" fill="white"/>
<path d="M6.2747 8.73813C2.35622 13.2617 0.396973 18.5487 0.396973 24.5993H21.1419V0.65625C15.1489 1.52062 10.1932 4.21458 6.2747 8.73813Z" fill="white"/>
<path d="M0.396973 24.5993C0.396973 18.5487 2.35622 13.2617 6.2747 8.73812C10.1932 4.21458 15.1489 1.52062 21.1419 0.65625V24.5993H0.396973Z" fill="#00B2DA"/>
<path d="M6.2747 8.73812C2.35622 13.2617 0.396973 18.5487 0.396973 24.5993H21.1419V0.65625C15.1489 1.52062 10.1932 4.21458 6.2747 8.73812Z" fill="#00B2DA"/>
</svg>
