<svg width="309" height="70" viewBox="0 0 309 70" fill="none" xmlns="http://www.w3.org/2000/svg">
<rect width="309" height="70" rx="9" fill="white"/>
<path d="M125.719 40.25C125.719 39.7188 125.635 39.25 125.469 38.8438C125.312 38.4271 125.031 38.0521 124.625 37.7188C124.229 37.3854 123.677 37.0677 122.969 36.7656C122.271 36.4635 121.385 36.1562 120.312 35.8438C119.188 35.5104 118.172 35.1406 117.266 34.7344C116.359 34.3177 115.583 33.8438 114.938 33.3125C114.292 32.7812 113.797 32.1719 113.453 31.4844C113.109 30.7969 112.938 30.0104 112.938 29.125C112.938 28.2396 113.12 27.4219 113.484 26.6719C113.849 25.9219 114.37 25.2708 115.047 24.7188C115.734 24.1562 116.552 23.7188 117.5 23.4062C118.448 23.0938 119.505 22.9375 120.672 22.9375C122.38 22.9375 123.828 23.2656 125.016 23.9219C126.214 24.5677 127.125 25.4167 127.75 26.4688C128.375 27.5104 128.688 28.625 128.688 29.8125H125.688C125.688 28.9583 125.505 28.2031 125.141 27.5469C124.776 26.8802 124.224 26.3594 123.484 25.9844C122.745 25.599 121.807 25.4062 120.672 25.4062C119.599 25.4062 118.714 25.5677 118.016 25.8906C117.318 26.2135 116.797 26.651 116.453 27.2031C116.12 27.7552 115.953 28.3854 115.953 29.0938C115.953 29.5729 116.052 30.0104 116.25 30.4062C116.458 30.7917 116.776 31.151 117.203 31.4844C117.641 31.8177 118.193 32.125 118.859 32.4062C119.536 32.6875 120.344 32.9583 121.281 33.2188C122.573 33.5833 123.688 33.9896 124.625 34.4375C125.562 34.8854 126.333 35.3906 126.938 35.9531C127.552 36.5052 128.005 37.1354 128.297 37.8438C128.599 38.5417 128.75 39.3333 128.75 40.2188C128.75 41.1458 128.562 41.9844 128.188 42.7344C127.812 43.4844 127.276 44.125 126.578 44.6562C125.88 45.1875 125.042 45.599 124.062 45.8906C123.094 46.1719 122.01 46.3125 120.812 46.3125C119.76 46.3125 118.724 46.1667 117.703 45.875C116.693 45.5833 115.771 45.1458 114.938 44.5625C114.115 43.9792 113.453 43.2604 112.953 42.4062C112.464 41.5417 112.219 40.5417 112.219 39.4062H115.219C115.219 40.1875 115.37 40.8594 115.672 41.4219C115.974 41.974 116.385 42.4323 116.906 42.7969C117.438 43.1615 118.036 43.4323 118.703 43.6094C119.38 43.776 120.083 43.8594 120.812 43.8594C121.865 43.8594 122.755 43.7135 123.484 43.4219C124.214 43.1302 124.766 42.7135 125.141 42.1719C125.526 41.6302 125.719 40.9896 125.719 40.25ZM135.047 32.3438V52.5H132.141V29.0938H134.797L135.047 32.3438ZM146.438 37.4062V37.7344C146.438 38.9635 146.292 40.1042 146 41.1562C145.708 42.1979 145.281 43.1042 144.719 43.875C144.167 44.6458 143.484 45.2448 142.672 45.6719C141.859 46.099 140.927 46.3125 139.875 46.3125C138.802 46.3125 137.854 46.1354 137.031 45.7812C136.208 45.4271 135.51 44.9115 134.938 44.2344C134.365 43.5573 133.906 42.7448 133.562 41.7969C133.229 40.849 133 39.7812 132.875 38.5938V36.8438C133 35.5938 133.234 34.474 133.578 33.4844C133.922 32.4948 134.375 31.651 134.938 30.9531C135.51 30.2448 136.203 29.7083 137.016 29.3438C137.828 28.9688 138.766 28.7812 139.828 28.7812C140.891 28.7812 141.833 28.9896 142.656 29.4062C143.479 29.8125 144.172 30.3958 144.734 31.1562C145.297 31.9167 145.719 32.8281 146 33.8906C146.292 34.9427 146.438 36.1146 146.438 37.4062ZM143.531 37.7344V37.4062C143.531 36.5625 143.443 35.7708 143.266 35.0312C143.089 34.2812 142.812 33.625 142.438 33.0625C142.073 32.4896 141.604 32.0417 141.031 31.7188C140.458 31.3854 139.776 31.2188 138.984 31.2188C138.255 31.2188 137.62 31.3438 137.078 31.5938C136.547 31.8438 136.094 32.1823 135.719 32.6094C135.344 33.026 135.036 33.5052 134.797 34.0469C134.568 34.5781 134.396 35.1302 134.281 35.7031V39.75C134.49 40.4792 134.781 41.1667 135.156 41.8125C135.531 42.4479 136.031 42.9635 136.656 43.3594C137.281 43.7448 138.068 43.9375 139.016 43.9375C139.797 43.9375 140.469 43.776 141.031 43.4531C141.604 43.1198 142.073 42.6667 142.438 42.0938C142.812 41.5208 143.089 40.8646 143.266 40.125C143.443 39.375 143.531 38.5781 143.531 37.7344ZM160.094 43.1094V34.4062C160.094 33.7396 159.958 33.1615 159.688 32.6719C159.427 32.1719 159.031 31.7865 158.5 31.5156C157.969 31.2448 157.312 31.1094 156.531 31.1094C155.802 31.1094 155.161 31.2344 154.609 31.4844C154.068 31.7344 153.641 32.0625 153.328 32.4688C153.026 32.875 152.875 33.3125 152.875 33.7812H149.984C149.984 33.1771 150.141 32.5781 150.453 31.9844C150.766 31.3906 151.214 30.8542 151.797 30.375C152.391 29.8854 153.099 29.5 153.922 29.2188C154.755 28.9271 155.682 28.7812 156.703 28.7812C157.932 28.7812 159.016 28.9896 159.953 29.4062C160.901 29.8229 161.641 30.4531 162.172 31.2969C162.714 32.1302 162.984 33.1771 162.984 34.4375V42.3125C162.984 42.875 163.031 43.474 163.125 44.1094C163.229 44.7448 163.38 45.2917 163.578 45.75V46H160.562C160.417 45.6667 160.302 45.224 160.219 44.6719C160.135 44.1094 160.094 43.5885 160.094 43.1094ZM160.594 35.75L160.625 37.7812H157.703C156.88 37.7812 156.146 37.849 155.5 37.9844C154.854 38.1094 154.312 38.3021 153.875 38.5625C153.438 38.8229 153.104 39.151 152.875 39.5469C152.646 39.9323 152.531 40.3854 152.531 40.9062C152.531 41.4375 152.651 41.9219 152.891 42.3594C153.13 42.7969 153.49 43.1458 153.969 43.4062C154.458 43.6562 155.057 43.7812 155.766 43.7812C156.651 43.7812 157.432 43.5938 158.109 43.2188C158.786 42.8438 159.323 42.3854 159.719 41.8438C160.125 41.3021 160.344 40.776 160.375 40.2656L161.609 41.6562C161.536 42.0938 161.339 42.5781 161.016 43.1094C160.693 43.6406 160.26 44.151 159.719 44.6406C159.188 45.1198 158.552 45.5208 157.812 45.8438C157.083 46.1562 156.26 46.3125 155.344 46.3125C154.198 46.3125 153.193 46.0885 152.328 45.6406C151.474 45.1927 150.807 44.5938 150.328 43.8438C149.859 43.0833 149.625 42.2344 149.625 41.2969C149.625 40.3906 149.802 39.5938 150.156 38.9062C150.51 38.2083 151.021 37.6302 151.688 37.1719C152.354 36.7031 153.156 36.349 154.094 36.1094C155.031 35.8698 156.078 35.75 157.234 35.75H160.594ZM174.297 43.9375C174.984 43.9375 175.62 43.7969 176.203 43.5156C176.786 43.2344 177.266 42.849 177.641 42.3594C178.016 41.8594 178.229 41.2917 178.281 40.6562H181.031C180.979 41.6562 180.641 42.5885 180.016 43.4531C179.401 44.3073 178.594 45 177.594 45.5312C176.594 46.0521 175.495 46.3125 174.297 46.3125C173.026 46.3125 171.917 46.0885 170.969 45.6406C170.031 45.1927 169.25 44.5781 168.625 43.7969C168.01 43.0156 167.547 42.1198 167.234 41.1094C166.932 40.0885 166.781 39.0104 166.781 37.875V37.2188C166.781 36.0833 166.932 35.0104 167.234 34C167.547 32.9792 168.01 32.0781 168.625 31.2969C169.25 30.5156 170.031 29.901 170.969 29.4531C171.917 29.0052 173.026 28.7812 174.297 28.7812C175.62 28.7812 176.776 29.0521 177.766 29.5938C178.755 30.125 179.531 30.8542 180.094 31.7812C180.667 32.6979 180.979 33.7396 181.031 34.9062H178.281C178.229 34.2083 178.031 33.5781 177.688 33.0156C177.354 32.4531 176.896 32.0052 176.312 31.6719C175.74 31.3281 175.068 31.1562 174.297 31.1562C173.411 31.1562 172.667 31.3333 172.062 31.6875C171.469 32.0312 170.995 32.5 170.641 33.0938C170.297 33.6771 170.047 34.3281 169.891 35.0469C169.745 35.7552 169.672 36.4792 169.672 37.2188V37.875C169.672 38.6146 169.745 39.3438 169.891 40.0625C170.036 40.7812 170.281 41.4323 170.625 42.0156C170.979 42.599 171.453 43.0677 172.047 43.4219C172.651 43.7656 173.401 43.9375 174.297 43.9375ZM191.297 46.3125C190.12 46.3125 189.052 46.1146 188.094 45.7188C187.146 45.3125 186.328 44.7448 185.641 44.0156C184.964 43.2865 184.443 42.4219 184.078 41.4219C183.714 40.4219 183.531 39.3281 183.531 38.1406V37.4844C183.531 36.1094 183.734 34.8854 184.141 33.8125C184.547 32.7292 185.099 31.8125 185.797 31.0625C186.495 30.3125 187.286 29.7448 188.172 29.3594C189.057 28.974 189.974 28.7812 190.922 28.7812C192.13 28.7812 193.172 28.9896 194.047 29.4062C194.932 29.8229 195.656 30.4062 196.219 31.1562C196.781 31.8958 197.198 32.7708 197.469 33.7812C197.74 34.7812 197.875 35.875 197.875 37.0625V38.3594H185.25V36H194.984V35.7812C194.943 35.0312 194.786 34.3021 194.516 33.5938C194.255 32.8854 193.839 32.3021 193.266 31.8438C192.693 31.3854 191.911 31.1562 190.922 31.1562C190.266 31.1562 189.661 31.2969 189.109 31.5781C188.557 31.849 188.083 32.2552 187.688 32.7969C187.292 33.3385 186.984 34 186.766 34.7812C186.547 35.5625 186.438 36.4635 186.438 37.4844V38.1406C186.438 38.9427 186.547 39.6979 186.766 40.4062C186.995 41.1042 187.323 41.7188 187.75 42.25C188.188 42.7812 188.714 43.1979 189.328 43.5C189.953 43.8021 190.661 43.9531 191.453 43.9531C192.474 43.9531 193.339 43.7448 194.047 43.3281C194.755 42.9115 195.375 42.3542 195.906 41.6562L197.656 43.0469C197.292 43.599 196.828 44.125 196.266 44.625C195.703 45.125 195.01 45.5312 194.188 45.8438C193.375 46.1562 192.411 46.3125 191.297 46.3125Z" fill="#00B2DA"/>
</svg>
