<svg width="230" height="150" viewBox="0 0 230 150" fill="none" xmlns="http://www.w3.org/2000/svg">
<rect x="80" width="70" height="70" rx="9" fill="white"/>
<path d="M109.422 39.125L113.938 23.25H116.125L114.859 29.4219L110 46H107.828L109.422 39.125ZM104.75 23.25L108.344 38.8125L109.422 46H107.266L101.75 23.25H104.75ZM121.969 38.7969L125.484 23.25H128.5L123 46H120.844L121.969 38.7969ZM116.453 23.25L120.844 39.125L122.438 46H120.266L115.578 29.4219L114.297 23.25H116.453Z" fill="#00B2DA"/>
<rect x="80" y="80" width="70" height="70" rx="9" fill="white"/>
<path d="M120.266 120.25C120.266 119.719 120.182 119.25 120.016 118.844C119.859 118.427 119.578 118.052 119.172 117.719C118.776 117.385 118.224 117.068 117.516 116.766C116.818 116.464 115.932 116.156 114.859 115.844C113.734 115.51 112.719 115.141 111.812 114.734C110.906 114.318 110.13 113.844 109.484 113.312C108.839 112.781 108.344 112.172 108 111.484C107.656 110.797 107.484 110.01 107.484 109.125C107.484 108.24 107.667 107.422 108.031 106.672C108.396 105.922 108.917 105.271 109.594 104.719C110.281 104.156 111.099 103.719 112.047 103.406C112.995 103.094 114.052 102.938 115.219 102.938C116.927 102.938 118.375 103.266 119.562 103.922C120.76 104.568 121.672 105.417 122.297 106.469C122.922 107.51 123.234 108.625 123.234 109.812H120.234C120.234 108.958 120.052 108.203 119.688 107.547C119.323 106.88 118.771 106.359 118.031 105.984C117.292 105.599 116.354 105.406 115.219 105.406C114.146 105.406 113.26 105.568 112.562 105.891C111.865 106.214 111.344 106.651 111 107.203C110.667 107.755 110.5 108.385 110.5 109.094C110.5 109.573 110.599 110.01 110.797 110.406C111.005 110.792 111.323 111.151 111.75 111.484C112.188 111.818 112.74 112.125 113.406 112.406C114.083 112.688 114.891 112.958 115.828 113.219C117.12 113.583 118.234 113.99 119.172 114.438C120.109 114.885 120.88 115.391 121.484 115.953C122.099 116.505 122.552 117.135 122.844 117.844C123.146 118.542 123.297 119.333 123.297 120.219C123.297 121.146 123.109 121.984 122.734 122.734C122.359 123.484 121.823 124.125 121.125 124.656C120.427 125.188 119.589 125.599 118.609 125.891C117.641 126.172 116.557 126.312 115.359 126.312C114.307 126.312 113.271 126.167 112.25 125.875C111.24 125.583 110.318 125.146 109.484 124.562C108.661 123.979 108 123.26 107.5 122.406C107.01 121.542 106.766 120.542 106.766 119.406H109.766C109.766 120.188 109.917 120.859 110.219 121.422C110.521 121.974 110.932 122.432 111.453 122.797C111.984 123.161 112.583 123.432 113.25 123.609C113.927 123.776 114.63 123.859 115.359 123.859C116.411 123.859 117.302 123.714 118.031 123.422C118.76 123.13 119.312 122.714 119.688 122.172C120.073 121.63 120.266 120.99 120.266 120.25Z" fill="#00B2DA"/>
<rect x="160" y="80" width="70" height="70" rx="9" fill="white"/>
<path d="M193.297 126H188.547L188.578 123.547H193.297C194.922 123.547 196.276 123.208 197.359 122.531C198.443 121.844 199.255 120.885 199.797 119.656C200.349 118.417 200.625 116.969 200.625 115.312V113.922C200.625 112.62 200.469 111.464 200.156 110.453C199.844 109.432 199.385 108.573 198.781 107.875C198.177 107.167 197.438 106.63 196.562 106.266C195.698 105.901 194.703 105.719 193.578 105.719H188.453V103.25H193.578C195.068 103.25 196.427 103.5 197.656 104C198.885 104.49 199.943 105.203 200.828 106.141C201.724 107.068 202.411 108.193 202.891 109.516C203.37 110.828 203.609 112.307 203.609 113.953V115.312C203.609 116.958 203.37 118.443 202.891 119.766C202.411 121.078 201.719 122.198 200.812 123.125C199.917 124.052 198.833 124.766 197.562 125.266C196.302 125.755 194.88 126 193.297 126ZM190.156 103.25V126H187.141V103.25H190.156Z" fill="#00B2DA"/>
<rect y="80" width="70" height="70" rx="9" fill="white"/>
<path d="M35.625 105.266L28.0938 126H25.0156L33.6875 103.25H35.6719L35.625 105.266ZM41.9375 126L34.3906 105.266L34.3438 103.25H36.3281L45.0312 126H41.9375ZM41.5469 117.578V120.047H28.7656V117.578H41.5469Z" fill="#00B2DA"/>
</svg>
